<svg xmlns="http://www.w3.org/2000/svg" viewBox="0 0 220 220">
  <defs>
    <style>
      .cls-1 {
        fill: #fff;
      }
    </style>
  </defs>
  <g id="_Github_square" data-name=" Github square" transform="translate(-619 -613)">
    <rect id="Rectangle_13" data-name="Rectangle 13" class="cls-1" width="220" height="220" rx="60" transform="translate(619 613)"/>
    <path id="Github2" d="M47.993,1C22.042,1,1,22.586,1,49.207A48.127,48.127,0,0,0,33.141,94.949c2.35.438,4.013-2.028,4.013-3.885,0-1.144.022-2.481,0-6.5-13.073,2.912-17.173-6.5-17.173-6.5-2.14-5.571-4.743-7.153-4.743-7.153-4.266-2.993.318-2.927.318-2.927a9.72,9.72,0,0,1,7.137,4.509c3.615,6.5,11.786,5.876,14.462,4.642,0-2.949.318-5.11,1.114-6.485C23.495,68,15.44,59.235,15.462,47.113c.014-7.161,2.422-12.739,6.334-16.854-1.714-2.214-2.871-9.76.615-14.4a19.134,19.134,0,0,1,13.934,6.485S40.429,20.5,47.986,20.5s11.627,1.738,11.627,1.738a19.279,19.279,0,0,1,13.948-6.381c3.485,4.642,2.328,12.189.954,14.247,3.738,4.033,6.023,9.6,6.023,17.01,0,12.115-8.026,20.873-22.762,23.532.94,1.456,1.07,3.461,1.07,6.492V91.064c0,1.857,1.649,4.345,4.035,3.877A48.132,48.132,0,0,0,95,49.207C95,22.586,73.958,1,47.993,1Z" transform="translate(681 675)"/>
  </g>
</svg>
